<svg width="585" height="440" viewBox="0 0 585 440" fill="none" xmlns="http://www.w3.org/2000/svg">
<g filter="url(#filter0_d_1184_60056)">
<path d="M4.46238 144.701C2.53506 137.508 6.80363 130.114 13.9965 128.187L490.669 0.463017C497.862 -1.46431 505.255 2.80426 507.183 9.99713L579.769 280.893C581.696 288.086 577.428 295.479 570.235 297.407L93.5623 425.131C86.3694 427.058 78.976 422.789 77.0487 415.596L4.46238 144.701Z" fill="url(#paint0_linear_1184_60056)"/>
<path d="M38.8515 135.486L41.5001 134.776C48.7199 132.842 53.6808 134.131 56.3827 138.642C57.2846 140.125 58.0142 141.906 58.5715 143.986L65.8576 171.178L49.5835 175.539L38.8515 135.486ZM17.4862 141.211L33.3189 136.969L44.0509 177.021L28.2183 181.263L17.4862 141.211Z" fill="white"/>
<path d="M71.8439 136.922C66.6488 138.314 63.6159 137.386 62.7454 134.137C62.2996 132.473 62.5999 131.114 63.6464 130.06C64.6887 128.99 66.4811 128.114 69.0238 127.433C71.5664 126.752 73.5408 126.618 74.947 127.032C76.349 127.43 77.275 128.469 77.725 130.148C78.1708 131.812 77.9338 133.187 77.014 134.275C76.1099 135.358 74.3866 136.241 71.8439 136.922ZM67.1044 145.131L79.7705 141.737L86.1987 165.728L73.5326 169.121L67.1044 145.131Z" fill="white"/>
<path d="M106.123 145.35C105.181 141.834 105.394 139.052 106.763 137.003C108.179 134.941 110.912 133.368 114.961 132.283L116.397 131.898L118.782 140.797C120.737 148.096 119.903 153.332 116.279 156.507C115.013 157.62 113.359 158.45 111.319 158.997L109.883 159.381L106.123 145.35ZM104.327 160.87C100.387 161.926 97.0843 161.339 94.4178 159.109C91.9472 157.046 90.0706 153.621 88.7879 148.834L86.4033 139.935L87.8395 139.55C91.8888 138.465 95.042 138.461 97.2989 139.539C99.5087 140.629 101.085 142.932 102.027 146.447L105.786 160.479L104.327 160.87Z" fill="white"/>
<path d="M128.112 121.845C122.916 123.237 119.884 122.309 119.013 119.06C118.567 117.396 118.868 116.037 119.914 114.983C120.956 113.913 122.749 113.037 125.291 112.356C127.834 111.675 129.809 111.541 131.215 111.955C132.617 112.353 133.543 113.392 133.993 115.071C134.439 116.735 134.202 118.111 133.282 119.198C132.378 120.282 130.654 121.164 128.112 121.845ZM123.372 130.054L136.038 126.66L142.466 150.651L129.8 154.045L123.372 130.054Z" fill="white"/>
<path d="M159.575 120.329L161.388 119.843C165.249 118.808 168.535 119.206 171.246 121.037C173.694 122.702 175.397 125.324 176.356 128.903C177.332 132.544 177.061 135.678 175.545 138.305C173.959 141.051 171.189 142.955 167.234 144.014L166.009 144.342L159.575 120.329ZM145.54 137.261C145.078 135.534 144.876 133.872 144.936 132.275C144.992 130.662 145.349 129.17 146.008 127.799C147.44 124.858 150.087 122.871 153.948 121.836L155.761 121.35L162.195 145.364L160.971 145.692C157.016 146.752 153.665 146.489 150.919 144.904C148.292 143.387 146.499 140.839 145.54 137.261Z" fill="white"/>
<path d="M30.0152 187.304L34.0473 186.224L34.212 186.838L31.0568 187.684L31.5704 189.6L34.4272 188.835L34.5919 189.45L31.7351 190.215L32.4643 192.936L31.5873 193.171L30.0152 187.304Z" fill="white"/>
<path d="M54.2398 180.813L55.1168 180.578L56.6889 186.445L55.812 186.68L54.2398 180.813Z" fill="white"/>
<path d="M75.7983 175.036L76.856 174.753L81.3457 178.744L80.0473 173.898L80.8157 173.692L82.3879 179.559L81.3301 179.843L76.8186 175.771L78.1388 180.698L77.3704 180.904L75.7983 175.036Z" fill="white"/>
<path d="M103.206 167.693L104.218 167.421L108.069 172.678L107.156 172.923L106.01 171.321L103.496 171.994L103.314 173.952L102.446 174.185L103.206 167.693ZM105.63 170.773L103.926 168.391L103.845 168.413L103.56 171.328L105.63 170.773Z" fill="white"/>
<path d="M126.561 161.435L127.618 161.151L132.108 165.142L130.81 160.296L131.578 160.09L133.15 165.958L132.093 166.241L127.581 162.169L128.901 167.096L128.133 167.302L126.561 161.435Z" fill="white"/>
<path d="M156.143 159.893C154.498 160.334 153.533 160.024 153.249 158.964L152.503 156.179C152.202 155.058 152.875 154.277 154.52 153.836C155.081 153.686 155.633 153.6 156.176 153.577L156.35 154.228C155.733 154.238 155.183 154.308 154.701 154.437C154.466 154.5 154.265 154.57 154.098 154.647C153.93 154.718 153.773 154.808 153.628 154.918C153.319 155.163 153.223 155.505 153.341 155.945L154.078 158.693C154.258 159.368 154.909 159.556 156.03 159.255C156.513 159.126 157.024 158.911 157.563 158.612L157.743 159.281C157.261 159.533 156.728 159.737 156.143 159.893Z" fill="white"/>
<path d="M176.528 148.046L180.47 146.99L180.635 147.604L177.57 148.426L178.084 150.342L180.85 149.601L181.015 150.216L178.248 150.957L178.813 153.063L181.968 152.218L182.133 152.833L178.101 153.913L176.528 148.046Z" fill="white"/>
<path d="M55.7416 276.819L57.6487 272.184L52.9743 272.087L53.101 269.594L57.8524 270.09L56.3557 265.288L58.79 264.636L59.8932 269.648L63.69 266.862L65.0575 268.999L60.9777 271.457L64.8541 274.452L63.2638 276.408L59.5885 273.044L58.0994 277.671L55.7416 276.819Z" fill="white"/>
<path d="M69.7473 273.066L71.6544 268.431L66.98 268.334L67.1067 265.841L71.8581 266.337L70.3614 261.535L72.7957 260.883L73.8989 265.896L77.6957 263.109L79.0632 265.247L74.9834 267.704L78.8598 270.699L77.2696 272.655L73.5942 269.291L72.1051 273.919L69.7473 273.066Z" fill="white"/>
<path d="M83.753 269.313L85.6601 264.678L80.9857 264.581L81.1124 262.088L85.8638 262.585L84.3671 257.782L86.8015 257.13L87.9047 262.143L91.7014 259.356L93.0689 261.494L88.9891 263.951L92.8656 266.946L91.2753 268.902L87.5999 265.538L86.1108 270.166L83.753 269.313Z" fill="white"/>
<path d="M97.7587 265.56L99.6658 260.926L94.9914 260.829L95.1181 258.335L99.8695 258.832L98.3728 254.03L100.807 253.377L101.91 258.39L105.707 255.603L107.075 257.741L102.995 260.199L106.871 263.194L105.281 265.149L101.606 261.785L100.116 266.413L97.7587 265.56Z" fill="white"/>
<path d="M111.764 261.807L113.672 257.173L108.997 257.076L109.124 254.583L113.875 255.079L112.379 250.277L114.813 249.624L115.916 254.637L119.713 251.85L121.08 253.988L117.001 256.446L120.877 259.441L119.287 261.396L115.611 258.033L114.122 262.66L111.764 261.807Z" fill="white"/>
<path d="M125.77 258.055L127.677 253.42L123.003 253.323L123.13 250.83L127.881 251.326L126.384 246.524L128.819 245.872L129.922 250.884L133.719 248.097L135.086 250.235L131.006 252.693L134.883 255.688L133.292 257.643L129.617 254.28L128.128 258.907L125.77 258.055Z" fill="white"/>
<path d="M139.776 254.302L141.683 249.667L137.009 249.57L137.135 247.077L141.887 247.573L140.39 242.771L142.824 242.119L143.928 247.131L147.724 244.345L149.092 246.482L145.012 248.94L148.888 251.935L147.298 253.891L143.623 250.527L142.134 255.155L139.776 254.302Z" fill="white"/>
<path d="M153.782 250.549L155.689 245.914L151.014 245.817L151.141 243.324L155.892 243.82L154.396 239.018L156.83 238.366L157.933 243.379L161.73 240.592L163.098 242.73L159.018 245.187L162.894 248.182L161.304 250.138L157.628 246.774L156.139 251.402L153.782 250.549Z" fill="white"/>
<path d="M167.787 246.796L169.694 242.162L165.02 242.065L165.147 239.571L169.898 240.068L168.401 235.265L170.836 234.613L171.939 239.626L175.736 236.839L177.103 238.977L173.023 241.434L176.9 244.429L175.31 246.385L171.634 243.021L170.145 247.649L167.787 246.796Z" fill="white"/>
<path d="M181.793 243.043L183.7 238.409L179.026 238.312L179.152 235.819L183.904 236.315L182.407 231.513L184.841 230.86L185.945 235.873L189.741 233.086L191.109 235.224L187.029 237.682L190.906 240.677L189.315 242.632L185.64 239.268L184.151 243.896L181.793 243.043Z" fill="white"/>
<path d="M195.799 239.291L197.706 234.656L193.031 234.559L193.158 232.066L197.91 232.562L196.413 227.76L198.847 227.108L199.95 232.12L203.747 229.333L205.115 231.471L201.035 233.929L204.911 236.924L203.321 238.879L199.646 235.516L198.156 240.143L195.799 239.291Z" fill="white"/>
<path d="M209.804 235.538L211.712 230.903L207.037 230.806L207.164 228.313L211.915 228.809L210.419 224.007L212.853 223.355L213.956 228.367L217.753 225.581L219.12 227.718L215.041 230.176L218.917 233.171L217.327 235.127L213.651 231.763L212.162 236.39L209.804 235.538Z" fill="white"/>
<path d="M234.249 217.637L234.744 219.483L231.565 240.188L228.011 241.141L231.401 221.279L220.853 224.105L220.133 221.419L234.249 217.637Z" fill="white"/>
<path d="M255.597 227.796C255.937 229.065 255.929 230.211 255.574 231.236C255.219 232.261 254.593 233.134 253.696 233.854C252.806 234.562 251.727 235.086 250.458 235.426C249.19 235.766 247.989 235.853 246.855 235.687C245.718 235.511 244.74 235.069 243.92 234.359C243.1 233.649 242.52 232.66 242.18 231.391C241.955 230.552 241.914 229.748 242.058 228.98C242.2 228.202 242.503 227.486 242.967 226.832C243.439 226.166 244.044 225.589 244.783 225.101C245.531 224.61 246.39 224.235 247.36 223.975C248.647 223.63 249.863 223.559 251.007 223.763C252.151 223.966 253.125 224.41 253.928 225.094C254.741 225.776 255.297 226.677 255.597 227.796ZM252.166 228.535C251.984 227.855 251.684 227.295 251.266 226.857C250.849 226.419 250.351 226.128 249.773 225.983C249.194 225.838 248.574 225.854 247.911 226.032C247.24 226.212 246.694 226.508 246.275 226.92C245.856 227.332 245.575 227.832 245.432 228.42C245.299 229.006 245.324 229.639 245.506 230.32C245.691 231.01 245.987 231.571 246.392 232.002C246.795 232.424 247.283 232.698 247.857 232.824C248.431 232.95 249.058 232.922 249.739 232.74C250.42 232.557 250.972 232.269 251.396 231.876C251.821 231.482 252.102 231.002 252.24 230.435C252.376 229.859 252.351 229.226 252.166 228.535ZM252.601 218.462C252.873 219.479 252.845 220.456 252.517 221.394C252.197 222.329 251.628 223.152 250.808 223.861C249.986 224.561 248.974 225.072 247.771 225.395C246.558 225.72 245.416 225.786 244.345 225.593C243.28 225.388 242.371 224.962 241.618 224.314C240.874 223.664 240.366 222.83 240.093 221.814C239.768 220.601 239.761 219.509 240.07 218.536C240.386 217.552 240.956 216.714 241.781 216.023C242.605 215.333 243.624 214.825 244.836 214.5C246.049 214.175 247.185 214.106 248.244 214.291C249.304 214.477 250.212 214.919 250.968 215.616C251.732 216.301 252.276 217.25 252.601 218.462ZM249.259 219.478C249.097 218.871 248.833 218.372 248.468 217.98C248.11 217.576 247.681 217.301 247.182 217.155C246.683 217.009 246.14 217.015 245.552 217.172C244.965 217.329 244.49 217.592 244.129 217.958C243.767 218.325 243.531 218.768 243.42 219.288C243.309 219.807 243.339 220.384 243.509 221.018C243.676 221.643 243.939 222.158 244.297 222.562C244.653 222.956 245.08 223.227 245.579 223.373C246.088 223.516 246.636 223.51 247.223 223.352C247.811 223.195 248.284 222.928 248.643 222.552C249.002 222.176 249.237 221.728 249.348 221.208C249.456 220.679 249.427 220.103 249.259 219.478Z" fill="white"/>
<path d="M263.355 228.821L263.635 228.746C264.922 228.401 265.95 227.946 266.718 227.38C267.493 226.803 268.055 226.142 268.406 225.399C268.757 224.655 268.934 223.843 268.938 222.962C268.942 222.081 268.815 221.16 268.557 220.2L267.617 216.688C267.394 215.858 267.111 215.154 266.766 214.577C266.428 213.988 266.044 213.526 265.615 213.191C265.192 212.844 264.747 212.619 264.279 212.514C263.82 212.407 263.358 212.416 262.892 212.541C262.379 212.678 261.948 212.919 261.6 213.262C261.259 213.593 261.002 213.997 260.83 214.473C260.665 214.937 260.578 215.455 260.572 216.027C260.572 216.586 260.652 217.165 260.812 217.762C260.962 218.321 261.172 218.845 261.442 219.332C261.72 219.808 262.047 220.21 262.425 220.538C262.803 220.867 263.229 221.093 263.701 221.216C264.174 221.339 264.686 221.327 265.236 221.18C265.759 221.04 266.213 220.813 266.599 220.5C266.982 220.177 267.291 219.799 267.525 219.367C267.759 218.934 267.911 218.479 267.983 217.999C268.054 217.52 268.04 217.055 267.938 216.602L269.33 216.649C269.52 217.358 269.559 218.097 269.445 218.867C269.338 219.626 269.1 220.359 268.73 221.068C268.367 221.765 267.885 222.374 267.285 222.895C266.694 223.413 265.998 223.78 265.196 223.995C264.226 224.254 263.319 224.302 262.475 224.139C261.639 223.963 260.888 223.624 260.224 223.123C259.569 222.618 259.01 221.988 258.548 221.232C258.085 220.477 257.733 219.646 257.49 218.742C257.228 217.762 257.131 216.804 257.2 215.866C257.268 214.928 257.499 214.056 257.893 213.25C258.285 212.436 258.838 211.738 259.552 211.157C260.272 210.564 261.15 210.129 262.186 209.851C263.286 209.556 264.309 209.512 265.254 209.719C266.199 209.925 267.058 210.33 267.829 210.933C268.6 211.536 269.264 212.298 269.821 213.218C270.377 214.139 270.809 215.173 271.117 216.32L271.435 217.509C271.758 218.712 271.962 219.902 272.047 221.079C272.13 222.246 272.056 223.371 271.826 224.452C271.603 225.522 271.196 226.52 270.605 227.449C270.021 228.365 269.218 229.175 268.197 229.878C267.182 230.57 265.92 231.118 264.409 231.523L264.101 231.605L263.355 228.821Z" fill="white"/>
<path d="M291.027 216.473L291.747 219.159L277.057 223.096L276.402 221.097L281.499 204.976L284.199 204.253L282.617 210.045L279.737 219.498L291.027 216.473ZM284.969 204.046L290.427 224.416L287.055 225.32L281.597 204.95L284.969 204.046Z" fill="white"/>
<path d="M91.8212 365.189L92.7134 368.519C93.1408 370.114 93.3471 371.518 93.3324 372.732C93.3245 373.933 93.1205 374.963 92.7203 375.82C92.3201 376.677 91.7534 377.378 91.0201 377.925C90.2961 378.469 89.4305 378.876 88.4232 379.145C87.6211 379.36 86.8474 379.458 86.1022 379.437C85.3664 379.415 84.6646 379.258 83.9968 378.967C83.3291 378.676 82.7069 378.238 82.1302 377.653C81.5604 377.056 81.0382 376.301 80.5638 375.388C80.0987 374.473 79.6949 373.377 79.3525 372.099L78.4603 368.769C78.0305 367.165 77.8267 365.77 77.8489 364.585C77.8686 363.39 78.0798 362.369 78.4825 361.521C78.8826 360.664 79.4459 359.968 80.1724 359.434C80.9082 358.897 81.7798 358.493 82.7871 358.223C83.5985 358.006 84.3722 357.908 85.108 357.931C85.8507 357.942 86.55 358.09 87.2059 358.374C87.8712 358.655 88.4875 359.09 89.0548 359.678C89.629 360.254 90.1486 360.999 90.6137 361.914C91.0764 362.82 91.4788 363.912 91.8212 365.189ZM89.4692 369.898L88.3146 365.589C88.0972 364.778 87.8593 364.077 87.6011 363.486C87.3404 362.886 87.0593 362.397 86.7578 362.018C86.4631 361.627 86.1443 361.332 85.8014 361.134C85.4559 360.927 85.0944 360.809 84.7168 360.78C84.3367 360.742 83.9321 360.78 83.5031 360.895C82.9808 361.035 82.5419 361.263 82.1865 361.578C81.8286 361.884 81.5685 362.293 81.4061 362.807C81.2438 363.32 81.1842 363.956 81.2274 364.714C81.2775 365.46 81.4387 366.342 81.7111 367.359L82.8657 371.668C83.0856 372.488 83.3259 373.199 83.5867 373.799C83.8474 374.399 84.131 374.897 84.4375 375.295C84.7415 375.683 85.0628 375.987 85.4014 376.206C85.7469 376.414 86.1096 376.536 86.4897 376.575C86.8791 376.61 87.2837 376.572 87.7034 376.459C88.2351 376.317 88.6786 376.088 89.034 375.773C89.3894 375.458 89.647 375.039 89.8069 374.516C89.9642 373.984 90.0154 373.336 89.9603 372.571C89.9053 371.806 89.7416 370.915 89.4692 369.898Z" fill="white"/>
<path d="M107.389 351.931L107.883 353.778L104.704 374.483L101.151 375.435L104.541 355.573L93.992 358.4L93.2722 355.714L107.389 351.931Z" fill="white"/>
<path d="M120.499 348.418L118.493 372.663L115.849 373.371L117.869 349.123L120.499 348.418Z" fill="white"/>
<path d="M130.222 355.095L132.236 354.555C133.02 354.345 133.632 354.036 134.072 353.628C134.522 353.218 134.809 352.741 134.934 352.198C135.058 351.655 135.038 351.075 134.873 350.46C134.7 349.816 134.436 349.297 134.081 348.903C133.732 348.496 133.29 348.23 132.757 348.103C132.232 347.973 131.615 348.004 130.907 348.194C130.31 348.354 129.801 348.62 129.381 348.992C128.968 349.353 128.68 349.79 128.518 350.303C128.353 350.807 128.351 351.358 128.51 351.955L125.125 352.862C124.835 351.78 124.862 350.743 125.206 349.751C125.55 348.759 126.148 347.894 127 347.156C127.859 346.406 128.903 345.866 130.135 345.537C131.45 345.184 132.656 345.096 133.752 345.272C134.856 345.436 135.798 345.873 136.578 346.584C137.358 347.295 137.918 348.284 138.258 349.553C138.413 350.131 138.435 350.755 138.325 351.424C138.214 352.094 137.96 352.747 137.56 353.383C137.159 354.011 136.603 354.585 135.892 355.105C135.18 355.616 134.301 356.011 133.256 356.291L130.724 356.97L130.222 355.095ZM130.926 357.725L130.432 355.878L132.964 355.2C134.158 354.88 135.212 354.748 136.126 354.802C137.05 354.855 137.844 355.057 138.508 355.409C139.17 355.751 139.705 356.203 140.115 356.763C140.534 357.32 140.838 357.948 141.025 358.648C141.28 359.599 141.335 360.494 141.19 361.333C141.052 362.16 140.739 362.913 140.251 363.594C139.764 364.274 139.135 364.857 138.366 365.343C137.606 365.827 136.736 366.2 135.757 366.462C134.88 366.697 134.008 366.801 133.141 366.774C132.274 366.746 131.459 366.579 130.698 366.274C129.934 365.958 129.269 365.492 128.703 364.874C128.145 364.244 127.738 363.453 127.483 362.502L130.855 361.598C131.017 362.204 131.301 362.703 131.705 363.095C132.117 363.474 132.614 363.726 133.197 363.849C133.789 363.971 134.421 363.941 135.093 363.761C135.802 363.571 136.379 363.282 136.824 362.892C137.27 362.503 137.562 362.025 137.7 361.458C137.847 360.889 137.827 360.255 137.64 359.555C137.427 358.762 137.101 358.16 136.661 357.748C136.22 357.336 135.685 357.09 135.053 357.009C134.419 356.919 133.715 356.978 132.941 357.185L130.926 357.725Z" fill="white"/>
<path d="M157.078 347.704L157.97 351.034C158.397 352.629 158.604 354.033 158.589 355.246C158.581 356.448 158.377 357.477 157.977 358.334C157.577 359.191 157.01 359.893 156.277 360.439C155.553 360.983 154.687 361.39 153.68 361.66C152.878 361.875 152.104 361.972 151.359 361.952C150.623 361.929 149.921 361.772 149.253 361.482C148.586 361.191 147.963 360.753 147.387 360.167C146.817 359.57 146.295 358.815 145.82 357.903C145.355 356.988 144.951 355.891 144.609 354.614L143.717 351.284C143.287 349.68 143.083 348.285 143.105 347.099C143.125 345.904 143.336 344.883 143.739 344.035C144.139 343.179 144.702 342.483 145.429 341.948C146.165 341.411 147.036 341.008 148.044 340.738C148.855 340.52 149.629 340.423 150.365 340.446C151.107 340.457 151.807 340.604 152.462 340.888C153.128 341.17 153.744 341.605 154.311 342.192C154.886 342.768 155.405 343.514 155.87 344.429C156.333 345.334 156.735 346.426 157.078 347.704ZM154.726 352.413L153.571 348.104C153.354 347.292 153.116 346.591 152.858 346.001C152.597 345.401 152.316 344.911 152.014 344.532C151.72 344.141 151.401 343.847 151.058 343.649C150.712 343.442 150.351 343.323 149.973 343.295C149.593 343.257 149.189 343.295 148.76 343.41C148.237 343.55 147.798 343.777 147.443 344.093C147.085 344.398 146.825 344.808 146.663 345.321C146.5 345.835 146.441 346.47 146.484 347.229C146.534 347.975 146.695 348.856 146.968 349.873L148.122 354.182C148.342 355.003 148.582 355.713 148.843 356.313C149.104 356.913 149.388 357.412 149.694 357.81C149.998 358.198 150.319 358.502 150.658 358.721C151.003 358.928 151.366 359.051 151.746 359.089C152.136 359.125 152.54 359.086 152.96 358.974C153.492 358.831 153.935 358.603 154.291 358.287C154.646 357.972 154.904 357.553 155.063 357.031C155.221 356.499 155.272 355.85 155.217 355.085C155.162 354.32 154.998 353.429 154.726 352.413Z" fill="white"/>
<path d="M500.737 252.205L523.528 246.098L534.501 287.051L511.71 293.158L500.737 252.205Z" fill="#FF5F00"/>
<path d="M507.671 272.294C505.441 263.973 507.371 255.546 512.096 249.161C506.752 246.871 500.619 246.266 494.541 247.894C480.142 251.752 471.615 266.523 475.473 280.921C479.331 295.32 494.101 303.848 508.5 299.99C514.578 298.361 519.586 294.77 523.069 290.114C515.804 287.02 509.9 280.615 507.671 272.294Z" fill="#EB001B"/>
<path d="M559.766 258.335C563.624 272.733 555.096 287.504 540.697 291.362C534.62 292.991 528.486 292.385 523.142 290.095C527.94 283.691 529.798 275.283 527.568 266.962C525.338 258.642 519.454 252.308 512.169 249.142C515.651 244.486 520.661 240.895 526.738 239.267C541.137 235.409 555.927 244.009 559.766 258.335Z" fill="#F79E1B"/>
</g>
<defs>
<filter id="filter0_d_1184_60056" x="0" y="0" width="584.231" height="439.594" filterUnits="userSpaceOnUse" color-interpolation-filters="sRGB">
<feFlood flood-opacity="0" result="BackgroundImageFix"/>
<feColorMatrix in="SourceAlpha" type="matrix" values="0 0 0 0 0 0 0 0 0 0 0 0 0 0 0 0 0 0 127 0" result="hardAlpha"/>
<feOffset dy="10"/>
<feGaussianBlur stdDeviation="2"/>
<feComposite in2="hardAlpha" operator="out"/>
<feColorMatrix type="matrix" values="0 0 0 0 0 0 0 0 0 0 0 0 0 0 0 0 0 0 0.25 0"/>
<feBlend mode="normal" in2="BackgroundImageFix" result="effect1_dropShadow_1184_60056"/>
<feBlend mode="normal" in="SourceGraphic" in2="effect1_dropShadow_1184_60056" result="shape"/>
</filter>
<linearGradient id="paint0_linear_1184_60056" x1="252.333" y1="64.325" x2="331.899" y2="361.269" gradientUnits="userSpaceOnUse">
<stop stop-color="#278EB2"/>
<stop offset="1" stop-color="#0F202A"/>
</linearGradient>
</defs>
</svg>
