<svg width="288" height="99" viewBox="0 0 288 99" fill="none" xmlns="http://www.w3.org/2000/svg">
<path d="M40.5793 0H45.6098C59.3226 0 67.5018 4.63923 70.1475 13.9177C71.0418 16.9733 71.4889 20.476 71.4889 24.4258V76.0723H40.5793V0ZM0 0H30.0712V76.0723H0V0Z" fill="#2A9BC2"/>
<path d="M98.3629 18.2104C88.4957 18.2104 83.5621 15.125 83.5621 8.95428C83.5621 5.79439 84.7396 3.5288 87.0946 2.15752C89.4497 0.756437 93.0418 0.0558944 97.8711 0.0558944C102.7 0.0558944 106.263 0.756437 108.558 2.15752C110.853 3.5288 112.001 5.80929 112.001 8.999C112.001 12.1589 110.928 14.4841 108.782 15.9746C106.665 17.4651 103.192 18.2104 98.3629 18.2104ZM86.0662 30.5072H110.123V76.0723H86.0662V30.5072Z" fill="black"/>
<path d="M155.107 49.4218C155.107 42.7443 156.806 37.915 160.205 34.934C163.692 31.953 169.282 30.4624 176.973 30.4624H179.7V47.3649C179.7 61.2267 175.736 70.1102 167.806 74.0154C165.034 75.3866 161.71 76.0723 157.835 76.0723H155.107V49.4218ZM144.554 76.0723C137.072 76.0723 131.497 73.4639 127.83 68.2471C124.432 63.4178 122.733 56.4571 122.733 47.3649V30.4624H125.461C133.152 30.4624 138.741 31.953 142.229 34.934C145.627 37.915 147.326 42.7443 147.326 49.4218V76.0723H144.554Z" fill="black"/>
<path d="M205.233 18.2104C195.366 18.2104 190.432 15.125 190.432 8.95428C190.432 5.79439 191.61 3.5288 193.965 2.15752C196.32 0.756437 199.912 0.0558944 204.741 0.0558944C209.57 0.0558944 213.133 0.756437 215.428 2.15752C217.724 3.5288 218.871 5.80929 218.871 8.999C218.871 12.1589 217.798 14.4841 215.652 15.9746C213.535 17.4651 210.062 18.2104 205.233 18.2104ZM192.936 30.5072H216.993V76.0723H192.936V30.5072Z" fill="black"/>
<path d="M261.709 30.4624H265.152C272.485 30.4624 278.119 32.728 282.054 37.2592C285.602 41.373 287.375 46.8283 287.375 53.6251C287.375 60.5411 285.408 65.9666 281.473 69.9015C277.359 74.0154 271.546 76.0723 264.034 76.0723H261.709V30.4624ZM228.798 53.8039C228.798 50.5248 229.23 47.4841 230.095 44.682C230.959 41.85 232.301 39.3757 234.119 37.2592C238.054 32.728 243.688 30.4624 251.022 30.4624H254.465V76.0723H252.14C244.627 76.0723 238.814 74.0154 234.701 69.9015C230.766 65.9666 228.798 60.6007 228.798 53.8039Z" fill="black"/>
<path d="M0.316072 87.6299H7.97423V88.7976H1.98164V92.4378H7.40759V93.6054H1.98164V98.7738H0.316072V87.6299Z" fill="#2A9BC2"/>
<path d="M46.3263 87.6299H47.9919V98.7738H46.3263V87.6299Z" fill="#2A9BC2"/>
<path d="M87.2725 87.6299H89.2815L95.3428 96.8335V87.6299H96.8023V98.7738H94.7933L88.7321 89.4157V98.7738H87.2725V87.6299Z" fill="#2A9BC2"/>
<path d="M139.328 87.6299H141.252L145.579 98.7738H143.844L142.574 95.3911H137.8L136.547 98.7738H134.898L139.328 87.6299ZM142.162 94.2407L140.273 89.2097H140.118L138.229 94.2407H142.162Z" fill="#2A9BC2"/>
<path d="M183.686 87.6299H185.695L191.757 96.8335V87.6299H193.216V98.7738H191.207L185.146 89.4157V98.7738H183.686V87.6299Z" fill="#2A9BC2"/>
<path d="M236.841 98.9455C233.716 98.9455 232.153 97.9381 232.153 95.9234V90.6348C232.153 88.5057 233.716 87.4411 236.841 87.4411C237.906 87.4411 238.924 87.5498 239.898 87.7673V89.0036C238.799 88.7289 237.791 88.5915 236.875 88.5915C236.429 88.5915 236.04 88.6201 235.708 88.6774C235.376 88.7232 235.055 88.809 234.746 88.9349C234.082 89.2211 233.75 89.782 233.75 90.6177V95.8376C233.75 97.1197 234.815 97.7607 236.944 97.7607C237.86 97.7607 238.867 97.6233 239.966 97.3486V98.6192C238.993 98.8367 237.951 98.9455 236.841 98.9455Z" fill="#2A9BC2"/>
<path d="M278.591 87.6299H286.077V88.7976H280.257V92.4378H285.511V93.6054H280.257V97.6062H286.249V98.7738H278.591V87.6299Z" fill="#2A9BC2"/>
</svg>
